<?xml version="1.0" encoding="UTF-8" standalone="no"?>
<!-- Created with Inkscape (http://www.inkscape.org/) -->

<svg
   width="210mm"
   height="297mm"
   viewBox="0 0 210 297"
   version="1.1"
   id="svg1"
   inkscape:version="1.3 (0e150ed6c4, 2023-07-21)"
   sodipodi:docname="drawing.svg"
   xmlns:inkscape="http://www.inkscape.org/namespaces/inkscape"
   xmlns:sodipodi="http://sodipodi.sourceforge.net/DTD/sodipodi-0.dtd"
   xmlns="http://www.w3.org/2000/svg"
   xmlns:svg="http://www.w3.org/2000/svg">
  <sodipodi:namedview
     id="namedview1"
     pagecolor="#ffffff"
     bordercolor="#000000"
     borderopacity="0.25"
     inkscape:showpageshadow="2"
     inkscape:pageopacity="0.0"
     inkscape:pagecheckerboard="0"
     inkscape:deskcolor="#d1d1d1"
     inkscape:document-units="mm"
     inkscape:zoom="0.43527603"
     inkscape:cx="78.111353"
     inkscape:cy="534.14381"
     inkscape:window-width="1920"
     inkscape:window-height="1009"
     inkscape:window-x="-8"
     inkscape:window-y="-8"
     inkscape:window-maximized="1"
     inkscape:current-layer="layer1" />
  <defs
     id="defs1" />
  <g
     inkscape:label="Capa 1"
     inkscape:groupmode="layer"
     id="layer1">
    <circle
       style="fill:none;fill-opacity:0.847059;stroke:#000000;stroke-width:0.5;stroke-dasharray:none;stroke-dashoffset:0;stroke-opacity:1"
       id="path1"
       cx="30.000002"
       cy="30.000002"
       r="29.750002" />
    <circle
       style="fill:none;fill-opacity:0.847059;stroke:#000000;stroke-width:0.5;stroke-dasharray:none;stroke-dashoffset:0;stroke-opacity:1"
       id="circle1"
       cx="30"
       cy="30"
       r="24.75" />
    <path
       style="fill:none;fill-opacity:0.847059;stroke:#000000;stroke-width:0.499998;stroke-dasharray:none;stroke-dashoffset:0;stroke-opacity:1"
       d="m 59.75,30 h -5"
       id="path2" />
    <path
       style="fill:none;fill-opacity:0.847059;stroke:#000000;stroke-width:0.499998;stroke-dasharray:none;stroke-dashoffset:0;stroke-opacity:1"
       d="m 44.875,55.764257 -2.5,-4.330127"
       id="path9" />
    <path
       style="fill:none;fill-opacity:0.847059;stroke:#000000;stroke-width:0.499998;stroke-dasharray:none;stroke-dashoffset:0;stroke-opacity:1"
       d="m 15.124998,55.764253 2.5,-4.330127"
       id="path10" />
    <path
       style="fill:none;fill-opacity:0.847059;stroke:#000000;stroke-width:0.499998;stroke-dasharray:none;stroke-dashoffset:0;stroke-opacity:1"
       d="M 0.24999991,29.999998 H 5.2499999"
       id="path11" />
    <path
       style="fill:none;fill-opacity:0.847059;stroke:#000000;stroke-width:0.499998;stroke-dasharray:none;stroke-dashoffset:0;stroke-opacity:1"
       d="m 15.125004,4.2357426 2.5,4.3301274"
       id="path12" />
    <path
       style="fill:none;fill-opacity:0.847059;stroke:#000000;stroke-width:0.499998;stroke-dasharray:none;stroke-dashoffset:0;stroke-opacity:1"
       d="m 44.874996,4.2357426 -2.5,4.3301274"
       id="path13" />
    <path
       id="path19"
       style="fill:none;fill-opacity:0.847059;stroke:#000000;stroke-width:0.499998;stroke-dasharray:none;stroke-dashoffset:0;stroke-opacity:1"
       d="m 195.6735,0.69657229 -2.5,4.33012731 m -27.25,-4.33012731 2.5,4.33012731 M 151.04849,26.460827 h 5 m 9.875,25.764255 2.5,-4.330127 m 27.25001,4.330131 -2.5,-4.330127 m 17.37499,-21.43413 h -5 m 0,0 a 24.75,24.75 0 0 1 -24.74999,24.75 24.75,24.75 0 0 1 -24.75001,-24.75 24.75,24.75 0 0 1 24.75001,-24.7499993 24.75,24.75 0 0 1 24.74999,24.7499993 z m 5,2e-6 A 29.750002,29.750002 0 0 1 180.7985,56.210833 29.750002,29.750002 0 0 1 151.04849,26.460831 29.750002,29.750002 0 0 1 180.7985,-3.2891705 29.750002,29.750002 0 0 1 210.54849,26.460831 Z" />
    <g
       id="g30">
      <path
         id="path29"
         style="fill:#ff7f2a;fill-opacity:0.847059;stroke:#000000;stroke-width:0.5;stroke-dasharray:none;stroke-dashoffset:0;stroke-opacity:1"
         d="M 131.23902 29.348079 A 24.75 24.750055 0 0 1 118.82944 50.723519 L 121.36003 55.10568 A 29.749933 29.75 0 0 0 121.47889 55.037984 A 29.75 29.75 0 0 0 123.57695 53.689746 A 29.749933 29.75 0 0 0 123.87203 53.482007 A 29.75 29.75 0 0 0 125.81816 51.951868 A 29.749933 29.75 0 0 0 126.0998 51.708988 A 29.75 29.75 0 0 0 127.88522 50.00625 A 29.749933 29.75 0 0 0 128.14463 49.733398 A 29.75 29.75 0 0 0 129.76262 47.866329 A 29.749933 29.75 0 0 0 129.98896 47.576941 A 29.75 29.75 0 0 0 131.42299 45.562594 A 29.749933 29.75 0 0 0 131.62142 45.249434 A 29.75 29.75 0 0 0 132.86683 43.09246 A 29.749933 29.75 0 0 0 133.01307 42.801005 A 29.75 29.75 0 0 0 134.05952 40.510189 A 29.749933 29.75 0 0 0 134.17217 40.218217 A 29.75 29.75 0 0 0 135.00623 37.808545 A 29.749933 29.75 0 0 0 135.07289 37.567733 A 29.75 29.75 0 0 0 135.68733 35.034037 A 29.749933 29.75 0 0 0 135.71936 34.850586 A 29.75 29.75 0 0 0 136.09919 32.209403 A 29.749933 29.75 0 0 0 136.10797 32.088481 A 29.75 29.75 0 0 0 136.23871 29.348079 L 131.23902 29.348079 z " />
      <path
         id="path20"
         style="fill:#ffcc00;fill-opacity:0.847059;stroke:#000000;stroke-width:0.5;stroke-dasharray:none;stroke-dashoffset:0;stroke-opacity:1"
         d="M 121.35952 3.5909953 L 118.82944 7.97264 A 24.75 24.750055 0 0 1 131.23902 29.348079 L 136.23871 29.348079 A 29.749933 29.75 0 0 0 136.20357 27.937313 A 29.75 29.75 0 0 0 136.1984 27.832926 A 29.749933 29.75 0 0 0 136.09764 26.465051 A 29.75 29.75 0 0 0 136.09247 26.411825 A 29.749933 29.75 0 0 0 135.9209 25.017594 A 29.75 29.75 0 0 0 135.90643 24.92406 A 29.749933 29.75 0 0 0 135.67389 23.586157 A 29.75 29.75 0 0 0 135.65839 23.507609 A 29.749933 29.75 0 0 0 135.34678 22.11958 A 29.749933 29.75 0 0 0 134.97057 20.758423 A 29.75 29.75 0 0 0 134.9375 20.651453 A 29.749933 29.75 0 0 0 134.5153 19.372978 A 29.75 29.75 0 0 0 134.4874 19.293913 A 29.749933 29.75 0 0 0 133.9789 17.977197 A 29.75 29.75 0 0 0 133.96237 17.937406 A 29.749933 29.75 0 0 0 133.40529 16.681152 A 29.75 29.75 0 0 0 133.3562 16.577283 A 29.749933 29.75 0 0 0 132.73505 15.342216 A 29.75 29.75 0 0 0 132.72575 15.324129 A 29.749933 29.75 0 0 0 132.7211 15.315861 A 29.749933 29.75 0 0 0 132.02708 14.090613 A 29.75 29.75 0 0 0 131.97334 14.001729 A 29.749933 29.75 0 0 0 131.25917 12.874666 A 29.75 29.75 0 0 0 131.19716 12.780615 A 29.749933 29.75 0 0 0 130.38377 11.626164 A 29.749933 29.75 0 0 0 129.52078 10.519771 A 29.75 29.75 0 0 0 129.4443 10.427271 A 29.749933 29.75 0 0 0 128.56115 9.4030436 A 29.75 29.75 0 0 0 128.51464 9.3513672 A 29.749933 29.75 0 0 0 127.55966 8.3478109 A 29.75 29.75 0 0 0 127.47232 8.2609945 A 29.749933 29.75 0 0 0 126.50907 7.3447713 A 29.75 29.75 0 0 0 126.43311 7.2755249 A 29.749933 29.75 0 0 0 125.36754 6.3562012 A 29.75 29.75 0 0 0 125.36186 6.3510335 A 29.749933 29.75 0 0 0 125.34739 6.3396647 A 29.749933 29.75 0 0 0 124.26425 5.4942383 A 29.75 29.75 0 0 0 124.14643 5.4074219 A 29.749933 29.75 0 0 0 123.07052 4.6493286 A 29.75 29.75 0 0 0 122.98526 4.591451 A 29.749933 29.75 0 0 0 121.81014 3.8478271 A 29.75 29.75 0 0 0 121.73779 3.8049357 A 29.749933 29.75 0 0 0 121.35952 3.5909953 z " />
      <path
         id="path23"
         style="fill:#00ccff;fill-opacity:0.847059;stroke:#000000;stroke-width:0.5;stroke-dasharray:none;stroke-dashoffset:0;stroke-opacity:1"
         d="M 91.647119 3.6421549 A 29.749933 29.75 0 0 0 90.820296 4.093807 A 29.75 29.75 0 0 0 90.025513 4.6043701 A 29.749933 29.75 0 0 0 87.006576 6.8646973 A 29.749933 29.75 0 0 0 84.339555 9.5317179 A 29.75 29.75 0 0 0 83.722538 10.243819 A 29.749933 29.75 0 0 0 81.461178 13.264307 A 29.749933 29.75 0 0 0 79.652502 16.576766 A 29.75 29.75 0 0 0 79.262862 17.430461 A 29.749933 29.75 0 0 0 77.943563 20.966679 A 29.749933 29.75 0 0 0 77.141545 24.655343 A 29.75 29.75 0 0 0 77.008219 25.581384 A 29.749933 29.75 0 0 0 76.738985 29.348079 L 81.73868 29.348079 A 24.75 24.750055 0 0 1 94.147225 7.97264 L 91.647119 3.6421549 z " />
      <path
         id="path24"
         style="fill:#5fd3bc;fill-opacity:0.847059;stroke:#000000;stroke-width:0.5;stroke-dasharray:none;stroke-dashoffset:0;stroke-opacity:1"
         d="M 76.738985 29.348079 A 29.749933 29.75 0 0 0 77.008219 33.115291 A 29.75 29.75 0 0 0 77.141545 34.040816 A 29.749933 29.75 0 0 0 77.943563 37.72948 A 29.749933 29.75 0 0 0 79.263379 41.267765 A 29.75 29.75 0 0 0 79.651986 42.118876 A 29.749933 29.75 0 0 0 81.461178 45.432369 A 29.749933 29.75 0 0 0 83.723055 48.453373 A 29.75 29.75 0 0 0 84.337488 49.162374 A 29.749933 29.75 0 0 0 90.025513 54.091789 A 29.75 29.75 0 0 0 90.820813 54.602869 A 29.749933 29.75 0 0 0 91.647119 55.054004 L 94.147225 50.723519 A 24.75 24.750055 0 0 1 81.73868 29.348079 L 76.738985 29.348079 z " />
      <path
         id="path25"
         style="fill:#ff2a2a;fill-opacity:0.847059;stroke:#000000;stroke-width:0.5;stroke-dasharray:none;stroke-dashoffset:0;stroke-opacity:1"
         d="M 94.147225 50.723519 L 91.647119 55.054004 A 29.749933 29.75 0 0 0 93.707975 56.180033 A 29.75 29.75 0 0 0 94.24231 56.451851 A 29.749933 29.75 0 0 0 97.785246 57.773218 A 29.75 29.75 0 0 0 98.774849 58.038318 A 29.749933 29.75 0 0 0 101.61034 58.655334 A 29.75 29.75 0 0 0 102.69244 58.8269 A 29.749933 29.75 0 0 0 106.48859 59.098201 A 29.75 29.75 0 0 0 109.5375 58.938521 A 29.749933 29.75 0 0 0 109.72198 58.915784 A 29.75 29.75 0 0 0 112.56522 58.465165 A 29.749933 29.75 0 0 0 112.83962 58.40367 A 29.75 29.75 0 0 0 115.53817 57.680717 A 29.749933 29.75 0 0 0 115.84874 57.577881 A 29.75 29.75 0 0 0 118.42481 56.589311 A 29.749933 29.75 0 0 0 118.73694 56.450818 A 29.75 29.75 0 0 0 121.20914 55.190946 A 29.749933 29.75 0 0 0 121.36003 55.10568 L 118.82944 50.723519 A 24.75 24.750055 0 0 1 106.48859 54.09799 A 24.75 24.750055 0 0 1 94.147225 50.723519 z " />
      <path
         id="path27"
         style="fill:#2a7fff;fill-opacity:0.847059;stroke:#000000;stroke-width:0.5;stroke-dasharray:none;stroke-dashoffset:0;stroke-opacity:1"
         d="M 106.48859 -0.40204264 A 29.749933 29.75 0 0 0 102.69709 -0.13074137 A 29.75 29.75 0 0 0 101.60672 0.04185791 A 29.749933 29.75 0 0 0 98.774849 0.65784098 A 29.75 29.75 0 0 0 97.785763 0.92294108 A 29.749933 29.75 0 0 0 94.24231 2.2448242 A 29.75 29.75 0 0 0 93.710042 2.5156087 A 29.749933 29.75 0 0 0 91.647119 3.6421549 L 94.147225 7.97264 A 24.75 24.750055 0 0 1 106.48859 4.5981689 A 24.75 24.750055 0 0 1 118.82944 7.97264 L 121.35952 3.5909953 A 29.749933 29.75 0 0 0 121.20087 3.5005615 A 29.75 29.75 0 0 0 118.72919 2.2417236 A 29.749933 29.75 0 0 0 118.43308 2.1104655 A 29.75 29.75 0 0 0 115.84823 1.118278 A 29.749933 29.75 0 0 0 115.53817 1.0154419 A 29.75 29.75 0 0 0 112.83962 0.29248861 A 29.749933 29.75 0 0 0 112.56574 0.23099365 A 29.75 29.75 0 0 0 109.70752 -0.22169189 A 29.749933 29.75 0 0 0 109.54473 -0.24132894 A 29.75 29.75 0 0 0 106.48859 -0.40204264 z " />
    </g>
    <ellipse
       style="fill:#2a7fff;fill-opacity:0.847059;stroke:#000000;stroke-width:0.499999"
       id="path3"
       cx="79.515984"
       cy="101.65152"
       rx="37.394005"
       ry="18.697002" />
    <circle
       style="fill:#2a7fff;fill-opacity:0.847059;stroke:#000000;stroke-width:0.499999"
       id="circle4"
       cx="307.41122"
       cy="34.477982"
       r="24.75" />
  </g>
</svg>
